<svg width="131" height="167" viewBox="0 0 131 167" fill="none" xmlns="http://www.w3.org/2000/svg">
<g id="Frame 1">
<g id="Group">
<path id="Vector" d="M116.862 115.238C117.387 113.191 116.86 112.468 115.98 112.192C111.345 109.308 108.254 106.07 104.979 101.28C102.341 95.7177 100.932 93.9832 101.121 86.1431C100.944 82.3647 101.408 78.5857 102.994 74.8073C104.864 70.9306 106.572 67.6675 110.093 65.4067L113.466 62.3839C114.281 61.7641 114.279 60.5324 113.863 59.693C110.923 56.6295 108.547 53.4845 103.26 50.7581C101.118 49.508 97.8851 48.5402 93.6253 48.3572C90.6178 48.3583 87.7001 48.2694 84.0136 48.9561C79.3033 49.7296 74.9875 51.9021 70.7635 54.0249C68.065 54.6912 65.6142 54.3541 63.2677 53.601L55.3971 50.2464C52.6576 49.2295 49.4511 48.6839 45.6526 48.7351C41.9029 48.7236 38.1864 48.8825 34.7839 50.6248C32.0864 51.936 29.6331 53.4929 27.2881 55.1595C24.5087 57.7735 21.8708 60.5297 19.7922 63.8498C18.1916 65.935 17.0574 69.2985 15.802 72.4299C14.6564 75.564 14.1313 77.8838 13.6633 80.72C12.8432 86.2032 12.9407 89.5322 13.133 93.6999C13.5378 100.836 14.5507 103.431 15.2945 107.681C18.0138 118.635 24.3267 128.615 31.0357 137.532C33.4108 140.177 34.5118 142.181 39.0385 145.444C42.0745 147.356 42.5229 147.728 44.1525 148.49C45.6532 148.866 47.2046 149.191 49.3998 148.868C54.8969 147.695 59.688 144.549 65.1405 143.199C67.1398 142.936 69.1385 142.733 71.1373 142.822C77.6845 142.712 83.1676 148.598 89.5013 148.333C91.9821 147.99 94.3251 147.106 96.1149 146.067C103.212 140.827 109.926 132.733 113.575 124.552C114.89 121.667 115.897 118.474 116.862 115.238C117.387 113.191 115.897 118.474 116.862 115.238Z" fill="#F3F3F3"/>
<path id="Vector_2" d="M64.9427 46.5349C64.9821 48.0453 65.9255 47.5942 66.4537 47.7907C68.4405 48.0181 69.4155 47.4798 70.7637 47.2242C73.3721 46.4701 74.3782 45.9183 75.6357 45.3345C77.0726 44.4733 78.5089 43.8519 79.9458 42.501C85.038 38.7701 89.9411 31.567 91.0016 25.3083C91.3339 23.7123 91.7537 22.1607 91.7522 20.3958C91.8569 19.5341 91.6164 19.0209 91.3769 18.5066C90.4299 17.9433 89.9421 17.9616 88.8406 18.041C87.5494 18.0462 85.8985 18.2464 84.0682 19.0731C77.96 21.9036 71.1561 27.2048 68.4374 33.554C66.9072 36.502 65.5289 40.0076 64.9427 43.323C64.7576 44.456 64.8058 45.2431 64.9427 46.5349C64.9821 48.0453 64.8058 45.2431 64.9427 46.5349Z" fill="#F3F3F3"/>
</g>
</g>
</svg>
