<svg width="131" height="167" viewBox="0 0 131 167" fill="none" xmlns="http://www.w3.org/2000/svg">
<g id="Frame 3">
<path id="Vector" d="M119.107 99.842L128.07 75.1047C128.07 75.1047 121.35 75.1047 114.625 76.4841L106.177 99.842H119.107ZM117.555 68.4714L115.833 73.2104C122.552 71.831 129.277 71.831 129.277 71.831L131 67.092C131 67.092 124.275 67.092 117.555 68.4714ZM70.8398 93.981C74.8922 94.7596 79.0242 95.103 83.2483 95.103C87.644 95.103 90.7461 94.1527 91.0894 91.1364C91.261 89.757 89.8816 88.7209 87.4723 87.3415C84.7135 85.7905 82.3041 85.0119 79.8887 83.375C77.4732 81.7381 76.4432 79.2368 77.2157 76.478C78.1659 73.2901 80.4036 71.4815 83.7632 69.7588C87.7298 67.7786 90.8319 67 98.5014 67C103.326 67 107.979 67.4291 112.547 68.3794L110.91 72.8609C106.857 72.0823 102.725 71.739 98.5014 71.739C94.1057 71.739 91.0036 72.6893 90.6602 75.7055C90.4886 77.0849 91.868 78.121 94.2773 79.5004C97.0361 81.0515 99.4455 81.8301 101.861 83.467C104.276 85.1038 105.306 87.6052 104.534 90.364C103.584 93.5519 101.346 95.3604 97.9864 97.0832C94.0198 99.0634 90.9177 99.842 83.2483 99.842C78.4234 99.842 73.7703 99.4128 69.2029 98.4626L70.8398 93.981ZM51.3627 99.842L58.8605 79.2429C61.3618 72.3459 52.2271 74.8472 50.1549 76.4841C48.5181 77.6919 45.5876 80.5365 44.5515 83.5528L38.6048 99.9278H25.6813L33.1791 79.2429C35.6805 72.3459 26.5458 74.8472 24.4736 76.4841C22.8367 77.6919 19.9063 80.5365 18.8702 83.5528L12.9234 99.9278H0L11.8935 67.092C16.0317 67.092 18.2694 68.0422 20.0779 69.8508C20.7646 70.5374 21.1998 71.4018 21.4573 72.3521C23.8728 70.8868 26.0247 69.7649 27.4899 69.25C30.1629 68.2139 33.5225 67.092 37.6607 67.092C41.7989 67.092 44.0365 68.0422 45.8451 69.8508C46.5317 70.5374 46.967 71.4018 47.2245 72.3521C49.64 70.8868 51.7918 69.7649 53.2571 69.25C55.93 68.2139 59.2896 67.0981 63.4278 67.0981C67.566 67.0981 69.8037 68.0483 71.6123 69.8569C73.5066 71.6654 73.4208 75.025 72.7342 76.9255L64.2861 99.8481H51.3627V99.842Z" fill="#F3F3F3"/>
</g>
</svg>
