<svg id="Componente_13_1" data-name="Componente 13 – 1" xmlns="http://www.w3.org/2000/svg" width="14" height="14" viewBox="0 0 14 14">
  <circle id="Elipse_29" data-name="Elipse 29" cx="7" cy="7" r="7"/>
  <path id="Icon_awesome-plus" data-name="Icon awesome-plus" d="M7.289,5.334H4.766V2.811a.561.561,0,0,0-.561-.561H3.644a.561.561,0,0,0-.561.561V5.334H.561A.561.561,0,0,0,0,5.894v.561a.561.561,0,0,0,.561.561H3.084V9.539a.561.561,0,0,0,.561.561h.561a.561.561,0,0,0,.561-.561V7.016H7.289a.561.561,0,0,0,.561-.561V5.894A.561.561,0,0,0,7.289,5.334Z" transform="translate(3.076 0.825)" fill="#fff"/>
</svg>
