<svg width="131" height="167" viewBox="0 0 131 167" fill="none" xmlns="http://www.w3.org/2000/svg">
<g id="Frame 5">
<path id="Vector" d="M89.0251 66.3218H76.3784L76.3977 78.3869L58.4983 89.5465L54.8166 87.3938L72.716 76.1215L64.729 71.0235L46.7152 82.2958L43.657 80.256L61.5001 69.04L53.4567 64L33.1162 76.7402C30.2401 69.3993 22.8363 66.3234 13.7827 66.3234H0V101.125H16.923C24.9342 101.125 31.1214 96.9776 33.4207 90.2329L53.7402 103.029L76.3913 88.7988L76.38 101.123H100.209V89.9525H89.0268L89.0251 66.3218ZM14.337 90.6921H12.6468V77.2155H14.337C18.9532 77.2155 21.7681 79.2924 21.7681 84.1858C21.7697 88.7537 18.5375 90.6921 14.337 90.6921ZM115.65 66.3218H103.003V101.125H126.832V89.9541H115.65V66.3218ZM125.104 66.1075H126.099V68.692H126.495V66.1075H127.489V65.7563H125.104V66.1075ZM130.433 65.7563L129.598 68.2376H129.59L128.752 65.7563H128.184V68.692H128.569V66.9583C128.569 66.8729 128.561 66.5007 128.561 66.23H128.569L129.395 68.692H129.788L130.615 66.2251H130.623C130.623 66.4991 130.615 66.8713 130.615 66.9583V68.692H131V65.7563H130.433Z" fill="#F3F3F3"/>
</g>
</svg>
