<svg author="Cristian Gavilan" width="3150" height="3102" viewBox="0 0 3150 3102" fill="none" xmlns="http://www.w3.org/2000/svg">
<g id="BackgroundV2" clip-path="url(#clip0_515_2)">
<rect width="3149.19" height="3101.67" fill="black"/>
<g id="Group">
<path id="Vector" d="M1648.03 869.116L1410.72 1584.35C1408.28 1592.23 1405.86 1600.66 1404.69 1608.96C1403.53 1617.15 1403.65 1624.52 1405.07 1632.16C1406.64 1640.55 1409.86 1649.45 1414.92 1659.37C1420.25 1669.82 1427.73 1681.65 1437.79 1695.53C1447.84 1709.4 1460.66 1725.57 1476.97 1744.98C1492.47 1763.41 1511.65 1785.38 1535.6 1812.13C1581.89 1863.82 1644.51 1931.71 1723.8 2017.66C1758.1 2054.85 1796.97 2096.99 1839.29 2142.99C1847.75 2152.04 1855.75 2159.29 1863.76 2165.15C1872.12 2171.27 1880.54 2175.93 1889.5 2179.38C1907.63 2186.38 1928.53 2188.6 1955.27 2186.37C1968.45 2185.27 1983.21 2183.08 2000.4 2179.69C2016.46 2176.52 2034.88 2172.25 2056.71 2166.61C2098.53 2155.83 2148.58 2141.22 2211.95 2122.72C2285.41 2101.28 2376.84 2074.6 2489.5 2044.06C2551.36 2027.28 2612.21 2011.34 2675.53 1995.31C2746.78 1977.27 2820.88 1959.23 2895.82 1941.68C2896.11 1939.59 2896.14 1935.6 2894.93 1928.18C2893.6 1920.05 2891.02 1909.25 2887.25 1896.06C2880.03 1870.79 2868.47 1836.72 2852.89 1794.78C2823.96 1716.87 2782.29 1614.95 2735.57 1507.78C2712.92 1455.84 2690.23 1405.26 2668.1 1357.44C2645.31 1308.17 2624.12 1263.98 2605.1 1226.07C2585.01 1186.01 2567.93 1154.15 2554.36 1131.39C2547.28 1119.53 2541.15 1110.14 2536.14 1103.49C2529.51 1094.7 2526.31 1092.7 2525.25 1092.24L1847.37 804.458C1836.23 799.729 1819.65 798.01 1799.42 799.486C1789.75 800.192 1779.46 801.615 1768.84 803.716C1758.3 805.8 1747.64 808.508 1737.17 811.765C1726.57 815.063 1716.37 818.859 1706.85 823.048C1697.04 827.364 1688.1 832.035 1680.27 836.931C1672.14 842.022 1665.27 847.319 1659.87 852.676C1654.34 858.155 1650.36 863.685 1648.03 869.116ZM1644.28 867.696C1665.17 818.48 1799.72 779.88 1848.93 800.774L2526.81 1088.56C2576.03 1109.45 2919.97 1895.82 2899.08 1945.03C2029.25 2148.57 1942.37 2259.16 1836.36 2145.71C1401.89 1673.47 1382 1663.49 1406.91 1583.12L1644.28 867.696Z" fill="#15FED4" fill-opacity="0.13"/>
<path id="Vector_2" d="M574.66 1726.24L1306.54 1548.53C1314.52 1546.43 1322.94 1544.01 1330.6 1540.61C1338.16 1537.26 1344.34 1533.25 1350.06 1527.99C1356.34 1522.23 1362.18 1514.78 1367.91 1505.24C1373.94 1495.19 1380.01 1482.58 1386.44 1466.7C1392.87 1450.84 1399.79 1431.41 1407.59 1407.3C1415.01 1384.41 1423.47 1356.52 1433.45 1322.04C1452.75 1255.44 1477.12 1166.4 1507.97 1053.68C1521.32 1004.91 1536.44 949.636 1553.01 889.406C1556.21 877.447 1558.11 866.824 1558.84 856.932C1559.6 846.603 1559.08 837.002 1557.27 827.579C1553.6 808.505 1544.41 789.614 1528.35 768.13C1520.44 757.541 1510.77 746.188 1498.79 733.421C1487.6 721.489 1474.22 708.143 1457.88 692.619C1426.59 662.895 1387.7 628.21 1338.46 584.296C1281.37 533.389 1210.33 470.034 1124.77 390.726C1077.79 347.18 1032.05 304.053 984.926 258.881C931.899 208.047 877.359 154.794 822.791 100.576C820.868 101.443 817.467 103.525 811.817 108.486C805.635 113.913 797.844 121.827 788.661 132.008C771.072 151.508 748.314 179.354 721.019 214.771C670.32 280.559 606.003 369.86 539.916 466.226C507.891 512.926 477.044 558.954 448.233 603.032C418.551 648.443 392.318 689.819 370.263 726.01C346.952 764.263 328.996 795.606 316.895 819.167C310.588 831.447 305.879 841.615 302.899 849.388C298.958 859.665 298.953 863.432 299.134 864.574L414.274 1591.54C416.166 1603.48 423.491 1618.45 435.456 1634.81C441.178 1642.63 447.835 1650.6 455.241 1658.49C462.59 1666.32 470.528 1673.91 478.834 1681.06C487.245 1688.3 495.866 1694.94 504.458 1700.79C513.312 1706.82 522.008 1711.92 530.302 1715.96C538.925 1720.16 547.05 1723.17 554.452 1724.91C562.024 1726.69 568.822 1727.14 574.66 1726.24ZM575.441 1730.17C522.662 1738.53 418.683 1644.94 410.324 1592.16L295.184 865.2C286.824 812.42 771.126 104.404 823.906 96.0442C1457.13 725.447 1596.88 740.508 1556.88 890.445C1386.75 1508.81 1388.83 1530.96 1307.52 1552.41L575.441 1730.17Z" fill="#15FED4" fill-opacity="0.13"/>
<path id="Vector_3" d="M1474.09 2972.89L1748.31 2271.43C1751.15 2263.69 1754.01 2255.4 1755.62 2247.18C1757.2 2239.07 1757.47 2231.71 1756.44 2224.01C1755.32 2215.56 1752.57 2206.5 1748.04 2196.33C1743.27 2185.62 1736.42 2173.43 1727.1 2159.05C1717.8 2144.68 1705.85 2127.87 1690.58 2107.65C1676.08 2088.44 1658.08 2065.52 1635.57 2037.56C1592.08 1983.56 1533.12 1912.53 1458.48 1822.6C1426.19 1783.69 1389.59 1739.6 1349.75 1691.48C1341.79 1682 1334.18 1674.35 1326.49 1668.08C1318.47 1661.53 1310.31 1656.45 1301.55 1652.53C1283.82 1644.59 1263.07 1641.29 1236.26 1642.12C1223.05 1642.53 1208.2 1643.94 1190.88 1646.42C1174.68 1648.75 1156.07 1652.05 1133.99 1656.54C1091.69 1665.12 1040.97 1677.08 976.756 1692.23C902.314 1709.79 809.669 1731.64 695.628 1756.24C633.01 1769.75 571.445 1782.48 507.415 1795.17C435.359 1809.45 360.454 1823.58 284.742 1837.19C284.35 1839.26 284.105 1843.24 284.927 1850.71C285.827 1858.89 287.842 1869.81 290.914 1883.17C296.799 1908.77 306.555 1943.38 319.911 1986.05C344.722 2065.32 380.983 2169.22 422.015 2278.63C441.9 2331.65 461.911 2383.32 481.493 2432.2C501.666 2482.56 520.513 2527.78 537.509 2566.61C555.473 2607.65 570.848 2640.33 583.208 2663.76C589.65 2675.97 595.278 2685.66 599.935 2692.56C606.094 2701.68 609.176 2703.84 610.216 2704.35L1271.75 3027C1282.62 3032.31 1299.08 3034.89 1319.35 3034.47C1329.04 3034.27 1339.38 3033.39 1350.09 3031.85C1360.72 3030.32 1371.5 3028.17 1382.12 3025.47C1392.87 3022.73 1403.25 3019.47 1412.97 3015.79C1422.99 3012 1432.16 3007.8 1440.22 3003.32C1448.61 2998.67 1455.73 2993.74 1461.41 2988.68C1467.21 2983.5 1471.48 2978.18 1474.09 2972.89ZM1477.75 2974.5C1454.33 3022.53 1318.03 3054.02 1270 3030.6L608.462 2707.95C560.433 2684.52 258.244 1881.7 281.67 1833.67C1160.45 1675.97 1252.94 1570.14 1352.82 1688.91C1761.78 2182.95 1781.11 2193.95 1752.04 2272.85L1477.75 2974.5Z" fill="#15FED4" fill-opacity="0.13"/>
</g>
</g>
<defs>
<clipPath id="clip0_515_2">
<rect width="3149.19" height="3101.67" fill="black"/>
</clipPath>
</defs>
</svg>
