<svg width="131" height="167" viewBox="0 0 131 167" fill="none" xmlns="http://www.w3.org/2000/svg">
<g id="Frame 2">
<g id="Group 8">
<path id="Vector" fill-rule="evenodd" clip-rule="evenodd" d="M100.669 83.2358C100.669 91.5983 107.472 98.4022 115.834 98.4022C124.196 98.4022 131 91.5983 131 83.2358C131 74.8732 124.196 68.0693 115.834 68.0693C107.472 68.07 100.669 74.8739 100.669 83.2358ZM106.311 83.2358C106.311 77.9842 110.582 73.7123 115.834 73.7123C121.085 73.7123 125.358 77.9842 125.358 83.2358C125.358 88.4873 121.085 92.76 115.834 92.76C110.582 92.76 106.311 88.4873 106.311 83.2358ZM86.3591 75.4222L86.3535 75.2625V98.4456H91.9965V75.196L91.9937 75.1393V75.1176C91.9937 74.9103 92.0294 73.3895 93.058 72.7124L89.9547 68C86.8983 70.0124 86.2562 73.6128 86.3591 75.4222ZM36.8182 81.7205C33.5797 87.3537 30.5205 92.6738 26.1275 92.6738C21.7344 92.6738 18.6752 87.3537 15.436 81.7205C11.7473 75.3045 7.56642 68.0322 0 68.0322V73.6752C4.30206 73.6752 7.33395 78.9491 10.5451 84.5339C14.2597 90.9933 18.4693 98.3168 26.1275 98.3168C33.7856 98.3168 37.9952 90.9933 41.7098 84.5339C44.9203 78.9491 47.9529 73.6752 52.2542 73.6752C56.5563 73.6752 59.5882 78.9491 62.7986 84.5339C66.5125 90.9933 70.7235 98.3168 78.3803 98.3168V92.6738C73.9879 92.6738 70.928 87.3537 67.6895 81.7205C64.0009 75.3045 59.8199 68.0322 52.2535 68.0322C44.6885 68.0322 40.5076 75.3045 36.8182 81.7205Z" fill="#F3F3F3"/>
<path id="Vector_2" fill-rule="evenodd" clip-rule="evenodd" d="M56.4246 88.5167C56.4001 89.6067 55.9499 90.6437 55.1704 91.4059C54.3909 92.1682 53.344 92.5949 52.2538 92.5949C51.1636 92.5949 50.1166 92.1682 49.3371 91.4059C48.5576 90.6437 48.1075 89.6067 48.083 88.5167C48.083 86.2137 49.9498 84.347 52.2534 84.347C54.5571 84.347 56.4246 86.213 56.4246 88.5167Z" fill="#F3F3F3"/>
</g>
</g>
</svg>
