<svg xmlns="http://www.w3.org/2000/svg" width="30.683" height="30.683" viewBox="0 0 30.683 30.683">
  <path id="Icon_awesome-user-circle" data-name="Icon awesome-user-circle" d="M15.342,1.563A15.342,15.342,0,1,0,30.683,16.9,15.339,15.339,0,0,0,15.342,1.563Zm0,5.939A5.444,5.444,0,1,1,9.9,12.945,5.444,5.444,0,0,1,15.342,7.5Zm0,21.28a11.854,11.854,0,0,1-9.063-4.219,6.9,6.9,0,0,1,6.093-3.7,1.514,1.514,0,0,1,.439.068,8.191,8.191,0,0,0,2.53.427,8.159,8.159,0,0,0,2.53-.427,1.514,1.514,0,0,1,.439-.068,6.9,6.9,0,0,1,6.093,3.7A11.854,11.854,0,0,1,15.342,28.782Z" transform="translate(0 -1.563)"/>
</svg>
