<svg xmlns="http://www.w3.org/2000/svg" width="29.09" height="25.857" viewBox="0 0 29.09 25.857">
  <path id="Icon_awesome-shopping-cart" data-name="Icon_awesome_shopping_cart" d="M26.671,15.217l2.387-10.5a1.212,1.212,0,0,0-1.182-1.481H8.04L7.578.969A1.212,1.212,0,0,0,6.39,0H1.212A1.212,1.212,0,0,0,0,1.212V2.02A1.212,1.212,0,0,0,1.212,3.232H4.741L8.289,20.577a2.828,2.828,0,1,0,3.386.433H22.263a2.827,2.827,0,1,0,3.212-.525l.279-1.226a1.212,1.212,0,0,0-1.182-1.481H11.015l-.331-1.616h14.8A1.212,1.212,0,0,0,26.671,15.217Z" fill="#fff"/>
</svg>
