<svg width="131" height="167" viewBox="0 0 131 167" fill="none" xmlns="http://www.w3.org/2000/svg">
<g id="Frame 4">
<g id="Group">
<circle id="Ellipse 16" cx="65.5" cy="83.5" r="64.5" fill="#F3F3F3"/>
<path id="Vector" d="M131 83.5C131 47.3239 101.676 18 65.5 18C64.5137 18 63.5323 18.0249 62.5559 18.0697L49.158 54.8934H60.8273C67.7691 54.8934 71.5103 60.2386 69.1341 66.767L52.6077 112.184L38.7316 112.181L56.466 63.5015H46.0321L28.2977 112.181H14.4166L35.2694 54.8934L47.8155 20.4185C20.2326 28.135 0 53.4537 0 83.5C0 114.438 21.4531 140.364 50.2938 147.222L62.4488 113.818H62.4588L83.9019 54.8934H109.46C116.409 54.8934 120.148 60.2386 117.771 66.767L103.25 106.657C102.144 109.696 98.595 112.181 95.362 112.181H76.9401L63.5547 148.97C64.1998 148.988 64.8499 149 65.5 149C101.676 149 131 119.674 131 83.5Z" fill="black"/>
<path id="Vector_2" d="M105.133 63.4667H94.7046L80.0986 103.541H90.5275L105.133 63.4667Z" fill="black"/>
</g>
</g>
</svg>
