<svg width="131" height="167" viewBox="0 0 131 167" fill="none" xmlns="http://www.w3.org/2000/svg">
<g id="Frame 7">
<g id="g1064">
<path id="path1014-0" d="M0.262695 28.3429C0.37658 28.3048 25.6352 39.5071 39.5434 45.7103C55.7401 52.9341 64.99 56.9482 65.2733 56.8759C65.5165 56.8138 77.2438 51.6886 91.3337 45.4865C105.424 39.2843 130.896 27.9762 130.997 28.0097C131.256 28.0959 65.3911 61.429 65.0119 61.404L0.262695 28.3429Z" fill="#FCFCFC"/>
<path id="path1016-6" d="M65.0013 110.428C65.0013 110.428 123.045 139.428 122.932 139.541C122.877 139.595 104.372 132.004 90.4471 125.901C76.5226 119.797 64.9634 114.85 64.76 114.907C64.5566 114.964 52.9085 120.056 38.8752 126.223C24.842 132.389 7.368 139.529 7.125 139.585L65.0013 110.428Z" fill="#FCFCFC"/>
<path id="path1018-8" d="M7.18605 139.402C7.3016 139.299 17.6592 132.614 30.2032 124.546C42.7472 116.477 53.0112 109.818 53.012 109.746C53.0129 109.675 41.4324 104.317 27.2777 97.8402C13.123 91.3633 1.54186 85.9955 1.54186 85.912C1.54186 85.8285 12.5265 80.8578 25.9523 74.866C39.378 68.8741 50.3626 63.9037 50.3626 63.8205C50.3626 63.7374 39.0327 58.5084 25.185 52.2005L0.00740168 40.7316L0.000725904 34.4672C-0.00595354 28.7473 0.0274505 28.2151 0.357548 28.3422L65.0097 61.3866C65.012 61.4033 131 28 131 28L130.942 34.7902L130.883 41.5806L110.449 50.545C99.2103 55.4755 87.8531 60.4538 85.2108 61.6078C82.5684 62.7619 80.4076 63.7558 80.4089 63.8165C80.4106 63.8773 91.4443 68.8459 104.929 74.8579C118.414 80.8699 129.447 85.8429 129.447 85.909C129.447 85.9751 117.826 91.3449 103.623 97.842C89.4192 104.339 77.8374 109.719 77.8851 109.797C77.9329 109.875 88.111 116.578 100.503 124.693C112.895 132.808 122.992 139.49 122.94 139.542L65.0023 110.428C65.0023 110.428 7.12514 139.585 7.12841 139.588C7.04425 139.588 7.07083 139.504 7.18605 139.402ZM83.7198 94.1055C94.5016 89.48 102.166 86.0739 102.166 85.9078C102.166 85.7419 94.5949 82.3783 83.9408 77.8111C73.9171 73.5142 65.5321 69.9398 65.3076 69.868C64.7222 69.681 28.7278 85.463 28.7265 85.9074C28.7258 86.1348 34.3528 88.7096 46.6683 94.1172C56.5369 98.4504 64.7604 102.001 64.9426 102.007C65.125 102.014 73.5746 98.458 83.7198 94.1055Z" fill="#F3F3F3"/>
</g>
</g>
</svg>
