<svg width="131" height="167" viewBox="0 0 131 167" fill="none" xmlns="http://www.w3.org/2000/svg">
<g id="Frame 6">
<path id="Vector" d="M46.6697 95.0636C41.9242 95.0636 37.5191 93.6405 34.5787 91.0013C32.3573 89.0074 31.2898 86.299 31.2898 83.5114C31.2898 80.7578 32.4033 78.0307 34.5785 76.0473C37.3092 73.5586 42.1304 72 46.6697 72C51.6929 72 55.7134 73.2653 58.7869 76.0542C60.9737 78.0386 62.0309 80.7536 62.0309 83.5117C62.0309 86.1851 60.9089 89.0321 58.7869 91.0013C55.9249 93.6576 51.4272 95.0636 46.6697 95.0636V92.0217C49.1884 92.0217 51.5248 91.152 53.1565 89.5285C54.7769 87.916 55.5319 85.9339 55.5319 83.5114C55.5319 81.1908 54.7175 79.0211 53.1565 77.4823C51.5467 75.8966 49.1545 75.0043 46.6697 75.0043C44.1772 75.0043 41.7835 75.8874 40.1723 77.4823C38.6197 79.0206 37.8032 81.1966 37.8032 83.5114C37.8032 85.8192 38.6292 87.9938 40.1723 89.5287C41.7848 91.1328 44.1701 92.0217 46.6697 92.0217V95.0636ZM11.9852 72.011C9.44673 72.011 6.56289 72.4859 4.11256 73.5802C1.8511 74.5892 5.35962e-07 76.2212 5.35962e-07 78.9267C-0.00105167 81.3633 1.54754 82.7904 1.50545 82.7509C2.16413 83.3573 3.22449 84.3898 5.9968 84.9961C7.23578 85.267 9.88471 85.6832 12.5226 85.9589C15.141 86.2351 17.7179 86.4976 18.7675 86.7633C19.6013 86.9756 21.0021 87.2647 21.0021 88.8361C21.0021 90.4013 19.5264 90.879 19.2699 90.9826C19.0137 91.0839 17.2433 91.8962 14.0609 91.8962C11.7113 91.8962 8.88669 91.1897 7.85711 90.8214C6.67021 90.3989 5.42519 89.8402 4.26381 88.4216C3.97498 88.0699 3.51938 87.1026 3.51938 86.1448H0.639217V94.2153H3.84056V93.1249C3.84056 93.0008 3.99576 92.4902 4.53318 92.733C5.20186 93.0368 7.16475 93.8183 9.21709 94.2468C10.8998 94.5988 11.9849 94.8511 14.077 94.8511C17.4903 94.8511 19.3241 94.295 20.5917 93.933C21.786 93.5911 23.2617 92.9771 24.4604 92.0212C25.1096 91.5043 26.5333 90.1793 26.5333 87.7742C26.5333 85.4656 25.2943 84.0328 24.8584 83.5969C24.2647 83.0029 23.5395 82.5426 22.7837 82.1877C22.1253 81.8779 21.0863 81.5057 20.2361 81.2976C18.586 80.8925 14.8548 80.3927 13.0705 80.2059C11.1994 80.0105 7.95365 79.7416 6.65733 79.3405C6.26433 79.2187 5.46307 78.837 5.46307 77.9068C5.46307 77.2453 5.8295 76.6844 6.55368 76.2312C7.70322 75.511 10.0252 75.0632 12.4455 75.0632C15.307 75.0527 17.7302 75.7069 19.2717 76.3961C19.796 76.6302 20.4094 76.9664 20.8966 77.3642C21.4464 77.8124 22.2182 78.7439 22.4973 80.0431H25.0831V73.018H22.1958V73.8345C22.1958 74.0981 21.9236 74.4406 21.4088 74.1576C20.1167 73.4797 16.4634 72.0171 11.9847 72.011M75.2582 73.2876L89.3425 85.9983L89.1978 77.4404C89.1836 76.3183 88.9769 75.8498 87.7632 75.8498H85.115V73.2897H97.1575V75.8498H94.5744C93.3364 75.8498 93.2583 76.2457 93.2433 77.4404L93.4617 93.7926H89.3375L73.1151 79.3142L73.1185 89.5895C73.1327 90.7064 73.1851 91.2325 74.3359 91.2325H77.2282V93.7915H65.4014V91.2328H68.166C69.1988 91.2328 69.1577 90.2482 69.1577 89.5314V77.5378C69.1577 76.7636 69.0491 75.8516 67.4276 75.8516H65.1843V73.2876H75.2582ZM110.919 91.2278C111.032 91.2278 111.534 91.2133 111.631 91.1836C111.754 91.1466 111.867 91.0835 111.963 90.9985C112.058 90.9136 112.134 90.8089 112.185 90.6917C112.222 90.6049 112.241 90.2208 112.241 90.1374L112.243 86.0917C112.243 85.9944 112.236 85.9523 112.07 85.7355C111.889 85.4988 104.693 77.3442 104.364 76.9851C103.955 76.5392 103.237 75.85 102.146 75.85H99.6431V73.289H113.766V75.8469H112.063C111.669 75.8469 111.408 76.2204 111.744 76.6355C111.744 76.6355 116.496 82.3193 116.541 82.3787C116.585 82.4392 116.623 82.4537 116.683 82.3985C116.743 82.3419 121.554 76.6876 121.592 76.6429C121.821 76.3688 121.665 75.8498 121.172 75.8498H119.426V73.289H131V75.8498H128.414C127.476 75.8498 127.094 76.0234 126.389 76.8212C126.066 77.1863 118.793 85.4875 118.596 85.7124C118.492 85.83 118.501 85.9939 118.501 86.0912V90.1364C118.501 90.2185 118.519 90.6031 118.556 90.6893C118.607 90.8067 118.683 90.9116 118.779 90.9965C118.875 91.0815 118.988 91.1445 119.111 91.1812C119.208 91.2112 119.704 91.226 119.817 91.226H122.462V93.7865H108.412V91.2257L110.919 91.2278H110.919Z" fill="#F3F3F3"/>
</g>
</svg>
